<svg width="74" height="50" viewBox="0 0 74 50" fill="none" xmlns="http://www.w3.org/2000/svg">
<path d="M29.0397 12.2896H26.3633V49.5054H29.0397V12.2896Z" fill="#757EBE"/>
<path d="M23.2406 18.5345H20.5642V49.5054H23.2406V18.5345Z" fill="#757EBE"/>
<path d="M34.8383 6.49072H32.1619V49.5054H34.8383V6.49072Z" fill="#757EBE"/>
<path d="M23.2406 12.2896H0.045166V15.4121H23.2406V12.2896Z" fill="#757EBE"/>
<path d="M29.4856 6.49072H0.045166V9.61319H29.4856V6.49072Z" fill="#757EBE"/>
<path d="M34.8384 0.691895H0.045166V3.81436H34.8384V0.691895Z" fill="#757EBE"/>
<path d="M37.9609 14.52L50.6837 0.599579H54.8553L37.9609 19.0351V14.52Z" fill="#757EBE"/>
<path d="M37.9609 22.5492L58.1009 0.641052H62.2716L37.9609 27.0643V22.5492Z" fill="#757EBE"/>
<path d="M37.9609 31.4705L66.2478 0.641052H70.4194L37.9609 35.9856V31.4705Z" fill="#757EBE"/>
<path d="M46.4083 30.5311L44.2227 32.8926L55.1561 49.5992H58.9174L46.4083 30.5311Z" fill="#757EBE"/>
<path d="M50.6735 26.1539L48.4878 28.5154L62.2926 49.5996H66.0539L50.6735 26.1539Z" fill="#757EBE"/>
<path d="M55.0512 21.9011L52.8655 24.2625L69.4301 49.5991H73.1914L55.0512 21.9011Z" fill="#757EBE"/>
</svg>
